name C:\Users\tom_v\MusculoskeletalSpecialization\ResultsSprinting\Case_6\motion.mot
datacolumns 32
datarows 8
range 0.00000000 0.03522189
endheader 
time	pelvis_tilt	pelvis_list	pelvis_rotation	pelvis_tx	pelvis_ty	pelvis_tz	hip_flexion_r	hip_adduction_r	hip_rotation_r	knee_angle_r	ankle_angle_r	subtalar_angle_r	mtp_angle_r	hip_flexion_l	hip_adduction_l	hip_rotation_l	knee_angle_l	ankle_angle_l	subtalar_angle_l	mtp_angle_l	lumbar_extension	lumbar_bending	lumbar_rotation	arm_flex_r	arm_add_r	arm_rot_r	elbow_flex_r	arm_flex_l	arm_add_l	arm_rot_l	elbow_flex_l	
          0.00000000	         -8.64919318	         -2.15793079	         -1.26698355	          0.00000000	          0.94284964	          0.00204345	         38.52634040	          8.55573168	          6.74436695	        -31.10228372	         11.44310914	          5.38027781	          0.64801396	          3.48073645	          1.94749430	          6.07304472	        -45.88344731	         -4.19173401	         13.39627673	         16.33607301	         -8.21693834	          4.38262072	         -3.09325904	         17.51052599	         -0.06857673	         -0.61908400	          6.67461276	         -2.56254886	         -6.83769851	          3.96169041	         46.32412475	
          0.00503170	         -8.61394899	         -2.13805980	         -1.16654779	          0.01719905	          0.94065053	          0.00214060	         37.84922378	          8.69314759	          6.97647576	        -31.89422895	         11.81171956	          4.97717130	          0.60820915	          4.52792561	          1.91970387	          5.97418715	        -47.61276493	         -3.16497971	         13.13944000	         15.32213634	         -8.16336222	          4.36819423	         -2.94290700	         16.88863861	         -0.28958742	          0.25360733	          7.85117416	         -2.01174534	         -6.58486855	          3.71130248	         44.86663658	
          0.01006340	         -8.58102320	         -2.11851051	         -1.06662945	          0.03427153	          0.93845687	          0.00223027	         37.20673733	          8.84230329	          7.19309299	        -32.75078764	         12.40175527	          4.50914380	          0.62066166	          5.67015789	          1.89903706	          5.88078145	        -49.34278843	         -2.09059285	         12.83325682	         14.36906299	         -8.12421450	          4.34907115	         -2.77424823	         16.23874716	         -0.53913789	          1.12361213	          9.14792921	         -1.38961933	         -6.31481239	          3.44327271	         43.30225120	
          0.01509510	         -8.55122713	         -2.10881945	         -0.96419192	          0.05119019	          0.93635200	          0.00231779	         36.62102474	          9.02158459	          7.40750285	        -33.71213937	         13.28082424	          4.03788167	          0.78819527	          6.90323154	          1.87536094	          5.79745705	        -51.05437745	         -0.98566913	         12.48388476	         13.47397934	         -8.10234906	          4.33353193	         -2.59084679	         15.56686475	         -0.81717347	          1.98329656	         10.56273230	         -0.68630082	         -6.02574959	          3.15507472	         41.61470802	
          0.02012680	         -8.52478034	         -2.10552896	         -0.85478173	          0.06795633	          0.93440464	          0.00240293	         36.06542737	          9.22476481	          7.62983563	        -34.72302035	         14.31887218	          3.57368793	          1.18536434	          8.21543900	          1.85142840	          5.72405541	        -52.71580418	          0.13409779	         12.09631691	         12.63328871	         -8.09681611	          4.31474015	         -2.39800587	         14.87214973	         -1.12194032	          2.82177017	         12.09544864	          0.10237366	         -5.71884921	          2.84537537	         39.79381930	
          0.02515849	         -8.50207370	         -2.10216192	         -0.73731393	          0.08458810	          0.93266183	          0.00247969	         35.49422421	          9.43203363	          7.85556703	        -35.69594309	         15.36386670	          3.11823516	          1.74560467	          9.59275387	          1.83360231	          5.65518613	        -54.29711529	          1.25908752	         11.67772246	         11.84400503	         -8.10450315	          4.28446638	         -2.19682568	         14.15096562	         -1.45311801	          3.62716506	         13.74525883	          0.97593861	         -5.39460110	          2.51402798	         37.83596204	
          0.03019019	         -8.48327560	         -2.09415827	         -0.61234956	          0.10110549	          0.93115309	          0.00254131	         34.87310281	          9.62827040	          8.08163941	        -36.56871029	         16.33239909	          2.67093116	          2.43486777	         11.02173346	          1.82715412	          5.58617248	        -55.77623266	          2.38650141	         11.23445384	         11.10265791	         -8.12264410	          4.23821640	         -1.98773297	         13.40220424	         -1.81008967	          4.38962086	         15.50651770	          1.92935819	         -5.05368312	          2.15943487	         35.74664465	
          0.03522189	         -8.46845547	         -2.07849252	         -0.48142101	          0.11752419	          0.92989401	          0.00258479	         34.18751560	          9.80333087	          8.30429148	        -37.31734871	         17.20794421	          2.24544774	          3.24192350	         12.49072598	          1.83513080	          5.51232941	        -57.13899115	          3.51605244	         10.77283068	         10.40635416	         -8.14939391	          4.17341149	         -1.77158473	         12.62807022	         -2.19073270	          5.10189225	         17.36873562	          2.95380243	         -4.69816589	          1.77804053	         33.54094064	
